<svg width="934" height="654" viewBox="0 0 934 654" fill="none" xmlns="http://www.w3.org/2000/svg">
<g clip-path="url(#clip0)" filter="url(#filter0_d)">
<path d="M237.088 346.866C247.255 346.866 255.497 338.624 255.497 328.457C255.497 318.29 247.255 310.048 237.088 310.048C226.921 310.048 218.679 318.29 218.679 328.457C218.679 338.624 226.921 346.866 237.088 346.866Z" fill="#F2F2F2"/>
<path d="M174.088 551.866C180.389 551.866 185.497 546.758 185.497 540.457C185.497 534.156 180.389 529.048 174.088 529.048C167.787 529.048 162.679 534.156 162.679 540.457C162.679 546.758 167.787 551.866 174.088 551.866Z" fill="#F2F2F2"/>
<path d="M523.997 21.5H383.997V23.5H523.997V21.5Z" fill="#F2F2F2"/>
<path d="M423.997 3.5H421.997V22H423.997V3.5Z" fill="#F2F2F2"/>
<path d="M484.997 3.5H482.997V22H484.997V3.5Z" fill="#F2F2F2"/>
<path d="M749.997 505.5H609.997V507.5H749.997V505.5Z" fill="#F2F2F2"/>
<path d="M649.997 487.5H647.997V506H649.997V487.5Z" fill="#F2F2F2"/>
<path d="M710.997 487.5H708.997V506H710.997V487.5Z" fill="#F2F2F2"/>
<path d="M756.997 200.5H616.997V202.5H756.997V200.5Z" fill="#F2F2F2"/>
<path d="M656.997 182.5H654.997V201H656.997V182.5Z" fill="#F2F2F2"/>
<path d="M717.997 182.5H715.997V201H717.997V182.5Z" fill="#F2F2F2"/>
<path d="M756.997 128.5H616.997V130.5H756.997V128.5Z" fill="#F2F2F2"/>
<path d="M656.997 110.5H654.997V129H656.997V110.5Z" fill="#F2F2F2"/>
<path d="M717.997 110.5H715.997V129H717.997V110.5Z" fill="#F2F2F2"/>
<path d="M449.997 138.5H309.997V140.5H449.997V138.5Z" fill="#F2F2F2"/>
<path d="M349.997 120.5H347.997V139H349.997V120.5Z" fill="#F2F2F2"/>
<path d="M410.997 120.5H408.997V139H410.997V120.5Z" fill="#F2F2F2"/>
<path d="M347.997 91.5H207.997V93.5H347.997V91.5Z" fill="#F2F2F2"/>
<path d="M247.997 73.5H245.997V92H247.997V73.5Z" fill="#F2F2F2"/>
<path d="M308.997 73.5H306.997V92H308.997V73.5Z" fill="#F2F2F2"/>
<path d="M284.997 276.5H144.997V278.5H284.997V276.5Z" fill="#F2F2F2"/>
<path d="M184.997 258.5H182.997V277H184.997V258.5Z" fill="#F2F2F2"/>
<path d="M245.997 258.5H243.997V277H245.997V258.5Z" fill="#F2F2F2"/>
<path d="M214.997 480.5H74.997V482.5H214.997V480.5Z" fill="#F2F2F2"/>
<path d="M114.997 462.5H112.997V481H114.997V462.5Z" fill="#F2F2F2"/>
<path d="M175.997 462.5H173.997V481H175.997V462.5Z" fill="#F2F2F2"/>
<path d="M876.997 396.5H736.997V398.5H876.997V396.5Z" fill="#F2F2F2"/>
<path d="M776.997 378.5H774.997V397H776.997V378.5Z" fill="#F2F2F2"/>
<path d="M837.997 378.5H835.997V397H837.997V378.5Z" fill="#F2F2F2"/>
<path d="M835.997 268.5H695.997V270.5H835.997V268.5Z" fill="#F2F2F2"/>
<path d="M797.997 270H795.997V288.5H797.997V270Z" fill="#F2F2F2"/>
<path d="M736.997 270H734.997V288.5H736.997V270Z" fill="#F2F2F2"/>
<path d="M157.997 118.5H17.997V120.5H157.997V118.5Z" fill="#F2F2F2"/>
<path d="M119.997 120H117.997V138.5H119.997V120Z" fill="#F2F2F2"/>
<path d="M58.997 120H56.997V138.5H58.997V120Z" fill="#F2F2F2"/>
<path d="M166.997 380.5H26.997V382.5H166.997V380.5Z" fill="#F2F2F2"/>
<path d="M128.997 382H126.997V400.5H128.997V382Z" fill="#F2F2F2"/>
<path d="M67.997 382H65.997V400.5H67.997V382Z" fill="#F2F2F2"/>
<path d="M607.997 53.5H467.997V55.5H607.997V53.5Z" fill="#F2F2F2"/>
<path d="M569.997 55H567.997V73.5H569.997V55Z" fill="#F2F2F2"/>
<path d="M508.997 55H506.997V73.5H508.997V55Z" fill="#F2F2F2"/>
<path d="M214.997 192.5H74.997V194.5H214.997V192.5Z" fill="#F2F2F2"/>
<path d="M114.997 174.5H112.997V193H114.997V174.5Z" fill="#F2F2F2"/>
<path d="M175.997 174.5H173.997V193H175.997V174.5Z" fill="#F2F2F2"/>
<path d="M237.497 173V644H673.497V173H237.497ZM455.497 207C452.53 207 449.63 206.12 447.163 204.472C444.697 202.824 442.774 200.481 441.639 197.74C440.504 194.999 440.206 191.983 440.785 189.074C441.364 186.164 442.793 183.491 444.89 181.393C446.988 179.296 449.661 177.867 452.571 177.288C455.48 176.709 458.496 177.006 461.237 178.142C463.978 179.277 466.321 181.2 467.969 183.666C469.617 186.133 470.497 189.033 470.497 192C470.497 195.978 468.917 199.794 466.104 202.607C463.291 205.42 459.475 207 455.497 207V207Z" fill="#515151"/>
<path d="M41.255 603.797C48.169 629.356 71.8509 645.184 71.8509 645.184C71.8509 645.184 84.3231 619.575 77.4091 594.017C70.4951 568.459 46.8132 552.63 46.8132 552.63C46.8132 552.63 34.341 578.239 41.255 603.797Z" fill="#515151"/>
<path d="M51.4146 598.305C70.3867 616.773 72.7039 645.164 72.7039 645.164C72.7039 645.164 44.2614 643.611 25.2894 625.142C6.3173 606.674 4 578.283 4 578.283C4 578.283 32.4425 579.836 51.4146 598.305Z" fill="#38A4D3"/>
<path d="M929.497 643H20.497V645H929.497V643Z" fill="#3F3D56"/>
<path d="M195.997 581.338C195.991 576.906 194.649 572.579 192.146 568.922C189.643 565.265 186.095 562.447 181.966 560.838C186.749 558.979 190.732 555.507 193.225 551.022C195.719 546.537 196.566 541.322 195.62 536.278C194.675 531.235 191.996 526.68 188.047 523.403C184.098 520.126 179.128 518.332 173.997 518.332C168.866 518.332 163.895 520.126 159.947 523.403C155.998 526.68 153.319 531.235 152.374 536.278C151.428 541.322 152.275 546.537 154.769 551.022C157.262 555.507 161.245 558.979 166.028 560.838C161.896 562.443 158.345 565.259 155.841 568.917C153.337 572.575 151.997 576.905 151.997 581.338C151.997 585.771 153.337 590.101 155.841 593.759C158.345 597.417 161.896 600.234 166.028 601.838C161.245 603.697 157.262 607.169 154.769 611.654C152.275 616.139 151.428 621.354 152.374 626.398C153.319 631.442 155.998 635.996 159.947 639.273C163.895 642.55 168.866 644.344 173.997 644.344C179.128 644.344 184.098 642.55 188.047 639.273C191.996 635.996 194.675 631.442 195.62 626.398C196.566 621.354 195.719 616.139 193.225 611.654C190.732 607.169 186.749 603.697 181.966 601.838C186.095 600.229 189.643 597.412 192.146 593.754C194.649 590.097 195.991 585.77 195.997 581.338V581.338ZM153.997 540.338C153.994 536.575 155.052 532.888 157.05 529.7C159.049 526.512 161.906 523.952 165.294 522.314C168.681 520.677 172.462 520.028 176.202 520.443C179.942 520.858 183.489 522.319 186.435 524.659C189.382 527 191.608 530.123 192.859 533.672C194.11 537.221 194.335 541.05 193.507 544.721C192.679 548.391 190.833 551.754 188.18 554.422C185.527 557.091 182.176 558.956 178.51 559.805C175.534 559.182 172.46 559.182 169.484 559.805C165.085 558.783 161.162 556.303 158.35 552.769C155.539 549.235 154.005 544.854 153.997 540.338V540.338ZM193.997 622.338C194 626.101 192.942 629.788 190.944 632.976C188.945 636.165 186.088 638.724 182.7 640.362C179.313 641.999 175.532 642.648 171.792 642.233C168.052 641.818 164.505 640.357 161.559 638.017C158.612 635.677 156.386 632.553 155.135 629.004C153.884 625.456 153.659 621.626 154.487 617.956C155.315 614.285 157.161 610.922 159.814 608.254C162.467 605.586 165.818 603.72 169.484 602.871C172.46 603.494 175.534 603.494 178.51 602.871C182.909 603.893 186.832 606.373 189.644 609.907C192.455 613.441 193.989 617.822 193.997 622.338V622.338ZM178.51 600.805C175.534 600.182 172.46 600.182 169.484 600.805C165.082 599.79 161.154 597.312 158.341 593.776C155.528 590.241 153.997 585.856 153.997 581.338C153.997 576.82 155.528 572.436 158.341 568.9C161.154 565.364 165.082 562.887 169.484 561.871C172.46 562.494 175.534 562.494 178.51 561.871C182.912 562.887 186.84 565.364 189.653 568.9C192.466 572.436 193.997 576.82 193.997 581.338C193.997 585.856 192.466 590.241 189.653 593.776C186.84 597.312 182.912 599.79 178.51 600.805V600.805Z" fill="#3F3D56"/>
<path d="M514.997 271.5H285.997C284.14 271.5 282.36 270.763 281.047 269.45C279.735 268.137 278.997 266.357 278.997 264.5C278.997 262.643 279.735 260.863 281.047 259.55C282.36 258.238 284.14 257.5 285.997 257.5H514.997C516.853 257.5 518.634 258.238 519.947 259.55C521.26 260.863 521.997 262.643 521.997 264.5C521.997 266.357 521.26 268.137 519.947 269.45C518.634 270.763 516.853 271.5 514.997 271.5V271.5Z" fill="#F2F2F2"/>
<path d="M514.997 343.5H285.997C284.14 343.5 282.36 342.763 281.047 341.45C279.735 340.137 278.997 338.357 278.997 336.5C278.997 334.643 279.735 332.863 281.047 331.55C282.36 330.238 284.14 329.5 285.997 329.5H514.997C516.853 329.5 518.634 330.238 519.947 331.55C521.26 332.863 521.997 334.643 521.997 336.5C521.997 338.357 521.26 340.137 519.947 341.45C518.634 342.763 516.853 343.5 514.997 343.5Z" fill="#F2F2F2"/>
<path d="M514.997 415.5H285.997C284.14 415.5 282.36 414.763 281.047 413.45C279.735 412.137 278.997 410.357 278.997 408.5C278.997 406.643 279.735 404.863 281.047 403.55C282.36 402.238 284.14 401.5 285.997 401.5H514.997C516.853 401.5 518.634 402.238 519.947 403.55C521.26 404.863 521.997 406.643 521.997 408.5C521.997 410.357 521.26 412.137 519.947 413.45C518.634 414.763 516.853 415.5 514.997 415.5Z" fill="#F2F2F2"/>
<path d="M514.997 487.5H285.997C284.14 487.5 282.36 486.763 281.047 485.45C279.735 484.137 278.997 482.357 278.997 480.5C278.997 478.643 279.735 476.863 281.047 475.55C282.36 474.238 284.14 473.5 285.997 473.5H514.997C516.853 473.5 518.634 474.238 519.947 475.55C521.26 476.863 521.997 478.643 521.997 480.5C521.997 482.357 521.26 484.137 519.947 485.45C518.634 486.763 516.853 487.5 514.997 487.5V487.5Z" fill="#F2F2F2"/>
<path d="M514.997 559.5H285.997C284.14 559.5 282.36 558.763 281.047 557.45C279.735 556.137 278.997 554.357 278.997 552.5C278.997 550.643 279.735 548.863 281.047 547.55C282.36 546.238 284.14 545.5 285.997 545.5H514.997C516.853 545.5 518.634 546.238 519.947 547.55C521.26 548.863 521.997 550.643 521.997 552.5C521.997 554.357 521.26 556.137 519.947 557.45C518.634 558.763 516.853 559.5 514.997 559.5Z" fill="#F2F2F2"/>
<path d="M474.997 271.5H284.997C283.14 271.5 281.36 270.763 280.047 269.45C278.735 268.137 277.997 266.357 277.997 264.5C277.997 262.643 278.735 260.863 280.047 259.55C281.36 258.238 283.14 257.5 284.997 257.5H474.997C476.853 257.5 478.634 258.238 479.947 259.55C481.26 260.863 481.997 262.643 481.997 264.5C481.997 266.357 481.26 268.137 479.947 269.45C478.634 270.763 476.853 271.5 474.997 271.5V271.5Z" fill="#38A4D3"/>
<path d="M415.997 343.5H284.997C283.14 343.5 281.36 342.763 280.047 341.45C278.735 340.137 277.997 338.357 277.997 336.5C277.997 334.643 278.735 332.863 280.047 331.55C281.36 330.238 283.14 329.5 284.997 329.5H415.997C417.853 329.5 419.634 330.238 420.947 331.55C422.26 332.863 422.997 334.643 422.997 336.5C422.997 338.357 422.26 340.137 420.947 341.45C419.634 342.763 417.853 343.5 415.997 343.5Z" fill="#38A4D3"/>
<path d="M396.438 416H290.562C287.23 416 284.035 415.263 281.679 413.95C279.323 412.637 278 410.857 278 409C278 407.143 279.323 405.363 281.679 404.05C284.035 402.738 287.23 402 290.562 402H396.438C399.77 402 402.965 402.738 405.321 404.05C407.677 405.363 409 407.143 409 409C409 410.857 407.677 412.637 405.321 413.95C402.965 415.263 399.77 416 396.438 416V416Z" fill="#38A4D3"/>
<path d="M492.997 487.5H284.997C283.14 487.5 281.36 486.763 280.047 485.45C278.735 484.137 277.997 482.357 277.997 480.5C277.997 478.643 278.735 476.863 280.047 475.55C281.36 474.238 283.14 473.5 284.997 473.5H492.997C494.853 473.5 496.634 474.238 497.947 475.55C499.26 476.863 499.997 478.643 499.997 480.5C499.997 482.357 499.26 484.137 497.947 485.45C496.634 486.763 494.853 487.5 492.997 487.5V487.5Z" fill="#38A4D3"/>
<path d="M446.997 559.5H284.997C283.14 559.5 281.36 558.763 280.047 557.45C278.735 556.137 277.997 554.357 277.997 552.5C277.997 550.643 278.735 548.863 280.047 547.55C281.36 546.238 283.14 545.5 284.997 545.5H446.997C448.853 545.5 450.634 546.238 451.947 547.55C453.26 548.863 453.997 550.643 453.997 552.5C453.997 554.357 453.26 556.137 451.947 557.45C450.634 558.763 448.853 559.5 446.997 559.5V559.5Z" fill="#38A4D3"/>
<path d="M609.997 257.5H607.997V271.5H609.997V257.5Z" fill="#38A4D3"/>
<path d="M624.997 272.5C623.415 272.5 621.868 272.031 620.552 271.152C619.237 270.273 618.211 269.023 617.606 267.561C617 266.1 616.842 264.491 617.151 262.939C617.459 261.387 618.221 259.962 619.34 258.843C620.459 257.724 621.884 256.962 623.436 256.654C624.988 256.345 626.597 256.503 628.058 257.109C629.52 257.714 630.77 258.74 631.649 260.055C632.528 261.371 632.997 262.918 632.997 264.5C632.994 266.621 632.151 268.654 630.651 270.154C629.151 271.654 627.118 272.498 624.997 272.5V272.5ZM624.997 258.5C623.81 258.5 622.65 258.852 621.664 259.511C620.677 260.17 619.908 261.108 619.454 262.204C619 263.3 618.881 264.507 619.112 265.671C619.344 266.834 619.915 267.904 620.754 268.743C621.593 269.582 622.662 270.153 623.826 270.385C624.99 270.616 626.197 270.497 627.293 270.043C628.389 269.589 629.326 268.82 629.986 267.833C630.645 266.847 630.997 265.687 630.997 264.5C630.995 262.909 630.362 261.384 629.238 260.259C628.113 259.134 626.588 258.502 624.997 258.5V258.5Z" fill="#38A4D3"/>
<path d="M609.997 329.5H607.997V343.5H609.997V329.5Z" fill="#38A4D3"/>
<path d="M624.997 344.5C623.415 344.5 621.868 344.031 620.552 343.152C619.237 342.273 618.211 341.023 617.606 339.561C617 338.1 616.842 336.491 617.151 334.939C617.459 333.387 618.221 331.962 619.34 330.843C620.459 329.724 621.884 328.962 623.436 328.654C624.988 328.345 626.597 328.503 628.058 329.109C629.52 329.714 630.77 330.74 631.649 332.055C632.528 333.371 632.997 334.918 632.997 336.5C632.994 338.621 632.151 340.654 630.651 342.154C629.151 343.654 627.118 344.498 624.997 344.5ZM624.997 330.5C623.81 330.5 622.65 330.852 621.664 331.511C620.677 332.17 619.908 333.108 619.454 334.204C619 335.3 618.881 336.507 619.112 337.671C619.344 338.834 619.915 339.904 620.754 340.743C621.593 341.582 622.662 342.153 623.826 342.385C624.99 342.616 626.197 342.497 627.293 342.043C628.389 341.589 629.326 340.82 629.986 339.833C630.645 338.847 630.997 337.687 630.997 336.5C630.995 334.909 630.362 333.384 629.238 332.259C628.113 331.134 626.588 330.502 624.997 330.5V330.5Z" fill="#38A4D3"/>
<path d="M609.997 401.5H607.997V415.5H609.997V401.5Z" fill="#38A4D3"/>
<path d="M624.997 416.5C623.415 416.5 621.868 416.031 620.552 415.152C619.237 414.273 618.211 413.023 617.606 411.561C617 410.1 616.842 408.491 617.151 406.939C617.459 405.387 618.221 403.962 619.34 402.843C620.459 401.724 621.884 400.962 623.436 400.654C624.988 400.345 626.597 400.503 628.058 401.109C629.52 401.714 630.77 402.74 631.649 404.055C632.528 405.371 632.997 406.918 632.997 408.5C632.994 410.621 632.151 412.654 630.651 414.154C629.151 415.654 627.118 416.498 624.997 416.5V416.5ZM624.997 402.5C623.81 402.5 622.65 402.852 621.664 403.511C620.677 404.17 619.908 405.108 619.454 406.204C619 407.3 618.881 408.507 619.112 409.671C619.344 410.834 619.915 411.904 620.754 412.743C621.593 413.582 622.662 414.153 623.826 414.385C624.99 414.616 626.197 414.497 627.293 414.043C628.389 413.589 629.326 412.82 629.986 411.833C630.645 410.847 630.997 409.687 630.997 408.5C630.995 406.909 630.362 405.384 629.238 404.259C628.113 403.134 626.588 402.502 624.997 402.5V402.5Z" fill="#38A4D3"/>
<path d="M609.997 473.5H607.997V487.5H609.997V473.5Z" fill="#38A4D3"/>
<path d="M624.997 488.5C623.415 488.5 621.868 488.031 620.552 487.152C619.237 486.273 618.211 485.023 617.606 483.561C617 482.1 616.842 480.491 617.151 478.939C617.459 477.387 618.221 475.962 619.34 474.843C620.459 473.724 621.884 472.962 623.436 472.654C624.988 472.345 626.597 472.503 628.058 473.109C629.52 473.714 630.77 474.74 631.649 476.055C632.528 477.371 632.997 478.918 632.997 480.5C632.994 482.621 632.151 484.654 630.651 486.154C629.151 487.654 627.118 488.498 624.997 488.5V488.5ZM624.997 474.5C623.81 474.5 622.65 474.852 621.664 475.511C620.677 476.17 619.908 477.108 619.454 478.204C619 479.3 618.881 480.507 619.112 481.671C619.344 482.834 619.915 483.904 620.754 484.743C621.593 485.582 622.662 486.153 623.826 486.385C624.99 486.616 626.197 486.497 627.293 486.043C628.389 485.589 629.326 484.82 629.986 483.833C630.645 482.847 630.997 481.687 630.997 480.5C630.995 478.909 630.362 477.384 629.238 476.259C628.113 475.134 626.588 474.502 624.997 474.5Z" fill="#38A4D3"/>
<path d="M609.997 545.5H607.997V559.5H609.997V545.5Z" fill="#38A4D3"/>
<path d="M624.997 560.5C623.415 560.5 621.868 560.031 620.552 559.152C619.237 558.273 618.211 557.023 617.606 555.561C617 554.1 616.842 552.491 617.151 550.939C617.459 549.387 618.221 547.962 619.34 546.843C620.459 545.724 621.884 544.962 623.436 544.654C624.988 544.345 626.597 544.503 628.058 545.109C629.52 545.714 630.77 546.74 631.649 548.055C632.528 549.371 632.997 550.918 632.997 552.5C632.994 554.621 632.151 556.654 630.651 558.154C629.151 559.654 627.118 560.498 624.997 560.5V560.5ZM624.997 546.5C623.81 546.5 622.65 546.852 621.664 547.511C620.677 548.17 619.908 549.108 619.454 550.204C619 551.3 618.881 552.507 619.112 553.671C619.344 554.834 619.915 555.904 620.754 556.743C621.593 557.582 622.662 558.153 623.826 558.385C624.99 558.616 626.197 558.497 627.293 558.043C628.389 557.589 629.326 556.82 629.986 555.833C630.645 554.847 630.997 553.687 630.997 552.5C630.995 550.909 630.362 549.384 629.238 548.259C628.113 547.134 626.588 546.502 624.997 546.5Z" fill="#38A4D3"/>
<path d="M624.997 268.5C627.206 268.5 628.997 266.709 628.997 264.5C628.997 262.291 627.206 260.5 624.997 260.5C622.788 260.5 620.997 262.291 620.997 264.5C620.997 266.709 622.788 268.5 624.997 268.5Z" fill="#38A4D3"/>
<path d="M624.997 484.5C627.206 484.5 628.997 482.709 628.997 480.5C628.997 478.291 627.206 476.5 624.997 476.5C622.788 476.5 620.997 478.291 620.997 480.5C620.997 482.709 622.788 484.5 624.997 484.5Z" fill="#38A4D3"/>
<path d="M624.997 556.5C627.206 556.5 628.997 554.709 628.997 552.5C628.997 550.291 627.206 548.5 624.997 548.5C622.788 548.5 620.997 550.291 620.997 552.5C620.997 554.709 622.788 556.5 624.997 556.5Z" fill="#38A4D3"/>
<path d="M455.497 199C459.363 199 462.497 195.866 462.497 192C462.497 188.134 459.363 185 455.497 185C451.631 185 448.497 188.134 448.497 192C448.497 195.866 451.631 199 455.497 199Z" fill="#3F3D56"/>
<path d="M455.497 14C459.363 14 462.497 10.866 462.497 7C462.497 3.13401 459.363 0 455.497 0C451.631 0 448.497 3.13401 448.497 7C448.497 10.866 451.631 14 455.497 14Z" fill="#3F3D56"/>
<path d="M456.497 6.99992H454.497V192H456.497V6.99992Z" fill="#3F3D56"/>
<path d="M860.614 384.479V409.254C860.614 409.254 866.578 449.169 866.578 484.037C866.578 518.906 856.943 600.112 856.943 600.112C856.943 600.112 837.674 606.994 836.297 596.442C834.921 585.89 831.251 529.917 831.251 521.658C831.251 513.4 815.193 450.545 815.193 450.545L805.1 520.282C805.1 520.282 808.311 602.865 805.1 605.159C801.888 607.453 786.289 611.582 784.454 607.453C782.619 603.324 772.984 514.777 772.984 514.777C772.984 514.777 765.184 399.16 769.772 392.279C774.36 385.397 778.489 379.891 778.489 379.891C778.489 379.891 844.097 363.833 860.614 384.479Z" fill="#151519"/>
<path d="M854.649 597.359L855.8 604.838C856.185 607.39 856.436 609.959 856.552 612.537C856.731 616.294 857.356 622.082 859.497 623C862.709 624.376 883.553 641.956 868.872 642.873C854.19 643.791 846.846 645.376 842.497 642C837.356 638.008 843.179 639.816 840.885 639.816C838.591 639.816 835.839 639.816 834.921 636.145C834.003 632.475 836.297 626.052 836.297 626.052V597.359H854.649Z" fill="#151519"/>
<path d="M786.145 597L784.995 604.479C784.609 607.03 784.358 609.6 784.243 612.178C784.064 615.935 783.438 621.723 781.297 622.641C778.086 624.017 757.241 641.597 771.923 642.514C786.604 643.432 793.949 645.017 798.297 641.641C803.439 637.649 797.615 639.456 799.909 639.456C802.203 639.456 804.956 639.456 805.873 635.786C806.791 632.116 804.497 625.693 804.497 625.693V597H786.145Z" fill="#151519"/>
<path d="M799.135 185.362C799.135 185.362 806.935 204.632 812.44 207.843C817.946 211.055 815.193 225.736 815.193 225.736L801.429 245.006H790.418L777.113 222.066C777.113 222.066 776.195 206.926 773.443 203.255C770.69 199.585 799.135 185.362 799.135 185.362Z" fill="#FFB9B9"/>
<path opacity="0.1" d="M799.135 185.362C799.135 185.362 806.935 204.632 812.44 207.843C817.946 211.055 815.193 225.736 815.193 225.736L801.429 245.006H790.418L777.113 222.066C777.113 222.066 776.195 206.926 773.443 203.255C770.69 199.585 799.135 185.362 799.135 185.362Z" fill="black"/>
<path d="M810.605 224.819L831.251 229.407L846.391 381.726C846.391 381.726 838.133 383.103 829.874 394.114C821.616 405.125 811.523 403.29 806.476 400.537C801.429 397.784 781.242 389.984 780.783 386.773C780.325 383.561 781.701 327.13 781.701 327.13L768.855 239.041L775.278 229.407H786.748L795.924 237.206L810.605 224.819Z" fill="#38A4D3"/>
<path d="M779.407 209.22C792.583 209.22 803.264 198.538 803.264 185.362C803.264 172.186 792.583 161.505 779.407 161.505C766.231 161.505 755.55 172.186 755.55 185.362C755.55 198.538 766.231 209.22 779.407 209.22Z" fill="#FFB9B9"/>
<path d="M813.817 217.019C813.817 217.019 858.778 221.607 862.908 231.242C867.037 240.876 860.155 283.544 860.155 283.544C860.155 283.544 876.671 320.707 876.213 329.424C875.754 338.141 891.812 397.784 874.377 390.902C856.943 384.02 862.449 366.127 853.732 378.973C845.015 391.82 841.344 389.984 841.344 389.984C841.344 389.984 832.627 404.207 829.874 402.831C827.122 401.454 825.286 390.902 831.251 385.855C837.215 380.809 836.297 372.092 824.828 355.575C813.358 339.058 801.429 252.346 808.311 239.041C815.193 225.736 813.817 217.019 813.817 217.019Z" fill="#515151"/>
<path d="M860.614 393.196L852.814 400.537L843.179 394.114L847.309 384.479L860.614 393.196Z" fill="#FFB9B9"/>
<path d="M780.783 224.819C780.783 224.819 745.915 237.665 745.915 251.429C745.915 265.193 767.02 325.295 767.02 325.295C767.02 325.295 767.02 340.894 766.102 344.564C765.184 348.234 750.749 380.247 763.349 383.103C771.214 384.885 777.676 389.569 778.26 396.178C778.953 404.027 772.945 413.934 773.443 415.677C774.36 418.889 779.866 423.476 779.407 421.182C778.948 418.889 783.077 385.855 789.5 371.174C795.924 356.493 786.748 257.852 784.913 245.006C784.027 238.186 782.647 231.439 780.783 224.819V224.819Z" fill="#515151"/>
<path d="M762.432 392.278L770.69 412.007L776.884 399.39L769.772 383.561L762.432 392.278Z" fill="#FFB9B9"/>
<path d="M806.284 200.143C806.284 200.143 813.817 203.255 818.404 203.255C822.992 203.255 841.803 212.89 835.38 218.854C828.957 224.819 819.322 226.195 814.734 234.912C810.146 243.629 807.852 245.006 807.852 245.006L799.684 234.033C799.684 234.033 811.064 221.148 810.605 217.019C810.146 212.89 806.284 200.143 806.284 200.143Z" fill="#38A4D3"/>
<path d="M775.874 211.174C775.874 211.174 770.231 213.349 768.855 217.019C767.478 220.69 758.761 227.571 762.432 229.407C766.102 231.242 782.16 238.582 785.371 239.959C788.583 241.335 794.568 236.054 794.568 236.054C794.568 236.054 786.518 231.471 786.518 228.26C786.518 225.048 775.874 211.174 775.874 211.174Z" fill="#38A4D3"/>
<path d="M756.926 245.006L745.915 247.758C745.915 247.758 730.775 315.66 735.363 332.635C739.951 349.611 761.514 400.537 761.514 400.537L775.278 384.479C775.278 384.479 769.274 347.964 765.853 345.576C762.432 343.188 764.726 338.141 764.726 336.764C764.726 335.388 766.102 336.306 762.891 333.094C759.679 329.883 774.819 311.99 770.69 306.943C766.561 301.896 756.926 245.006 756.926 245.006Z" fill="#515151"/>
<path opacity="0.1" d="M865.431 257.622L858.778 232.618C858.778 232.618 876.671 245.464 880.342 264.275C884.012 283.086 898.235 320.707 889.059 337.223C879.883 353.74 863.825 401.454 858.32 400.537C852.814 399.619 839.509 388.149 839.05 386.314C838.591 384.479 862.907 342.27 859.237 339.058C855.567 335.847 856.484 327.589 859.237 325.753C861.99 323.918 865.201 315.201 862.907 315.66C860.614 316.119 853.732 311.531 855.108 306.484C856.484 301.437 848.226 267.487 848.226 267.487L865.431 257.622Z" fill="black"/>
<path d="M856.484 229.407L862.907 231.242C862.907 231.242 880.801 244.088 884.471 262.899C888.141 281.709 902.364 319.33 893.188 335.847C884.012 352.363 867.954 400.078 862.449 399.16C856.943 398.243 843.638 386.773 843.179 384.938C842.721 383.103 867.037 340.894 863.366 337.682C859.696 334.47 860.614 326.212 863.366 324.377C866.119 322.542 869.331 313.825 867.037 314.284C864.743 314.742 857.861 310.154 859.237 305.108C860.614 300.061 852.355 266.11 852.355 266.11L856.484 229.407Z" fill="#515151"/>
<path d="M797.921 163.827L802.395 162.2C802.395 162.2 793.039 152.844 780.022 153.658L783.684 149.997C783.684 149.997 774.734 146.743 766.599 155.285C762.322 159.776 757.374 165.054 754.289 171H749.497L751.497 175L744.497 179L751.682 178.282C751.001 181.735 751.235 185.306 752.361 188.641L753.988 193.116C753.988 193.116 760.497 180.099 760.497 178.472V182.539C760.497 182.539 764.972 178.878 764.972 176.438L767.412 179.285L768.633 174.811L783.684 179.285L781.243 175.624L790.599 176.844L786.938 172.37C786.938 172.37 797.514 177.658 797.921 182.133C798.328 186.607 803.616 192.302 803.616 192.302L806.056 188.234C806.056 188.234 809.717 169.929 797.921 163.827Z" fill="#DFC393"/>
<path d="M796.997 188C798.93 188 800.497 185.538 800.497 182.5C800.497 179.462 798.93 177 796.997 177C795.064 177 793.497 179.462 793.497 182.5C793.497 185.538 795.064 188 796.997 188Z" fill="#FFB9B9"/>
</g>
<defs>
<filter id="filter0_d" x="0" y="0" width="933.497" height="653.184" filterUnits="userSpaceOnUse" color-interpolation-filters="sRGB">
<feFlood flood-opacity="0" result="BackgroundImageFix"/>
<feColorMatrix in="SourceAlpha" type="matrix" values="0 0 0 0 0 0 0 0 0 0 0 0 0 0 0 0 0 0 127 0"/>
<feOffset dy="4"/>
<feGaussianBlur stdDeviation="2"/>
<feColorMatrix type="matrix" values="0 0 0 0 0 0 0 0 0 0 0 0 0 0 0 0 0 0 0.25 0"/>
<feBlend mode="normal" in2="BackgroundImageFix" result="effect1_dropShadow"/>
<feBlend mode="normal" in="SourceGraphic" in2="effect1_dropShadow" result="shape"/>
</filter>
<clipPath id="clip0">
<rect width="925.497" height="645.184" fill="white" transform="translate(4)"/>
</clipPath>
</defs>
</svg>
