<svg width="512" height="384" viewBox="0 0 512 384" fill="none" xmlns="http://www.w3.org/2000/svg">
<path d="M502.3 126.8C506.2 123.7 512 126.6 512 131.5V336C512 362.5 490.5 384 464 384H48C21.5 384 0 362.5 0 336V131.6C0 126.6 5.7 123.8 9.7 126.9C32.1 144.3 61.8 166.4 163.8 240.5C184.9 255.9 220.5 288.3 256 288.1C291.7 288.4 328 255.3 348.3 240.5C450.3 166.4 479.9 144.2 502.3 126.8ZM256 256C279.2 256.4 312.6 226.8 329.4 214.6C462.1 118.3 472.2 109.9 502.8 85.9C508.6 81.4 512 74.4 512 67V48C512 21.5 490.5 0 464 0H48C21.5 0 0 21.5 0 48V67C0 74.4 3.4 81.3 9.2 85.9C39.8 109.8 49.9 118.3 182.6 214.6C199.4 226.8 232.8 256.4 256 256Z" fill="white"/>
</svg>
