<svg width="496" height="496" viewBox="0 0 496 496" fill="none" xmlns="http://www.w3.org/2000/svg">
<path d="M248 0C111 0 0 111 0 248C0 385 111 496 248 496C385 496 496 385 496 248C496 111 385 0 248 0ZM248 448C137.5 448 48 358.5 48 248C48 137.5 137.5 48 248 48C358.5 48 448 137.5 448 248C448 358.5 358.5 448 248 448ZM349.8 185.8L287.6 248L349.8 310.2C354.5 314.9 354.5 322.5 349.8 327.2L327.2 349.8C322.5 354.5 314.9 354.5 310.2 349.8L248 287.6L185.8 349.8C181.1 354.5 173.5 354.5 168.8 349.8L146.2 327.2C141.5 322.5 141.5 314.9 146.2 310.2L208.4 248L146.2 185.8C141.5 181.1 141.5 173.5 146.2 168.8L168.8 146.2C173.5 141.5 181.1 141.5 185.8 146.2L248 208.4L310.2 146.2C314.9 141.5 322.5 141.5 327.2 146.2L349.8 168.8C354.5 173.5 354.5 181.1 349.8 185.8V185.8Z" fill="white"/>
</svg>
