<svg width="512" height="449" viewBox="0 0 512 449" fill="none" xmlns="http://www.w3.org/2000/svg">
<path d="M256 193C176.59 193 64 315.76 64 393.25C64 428.15 90.81 449 135.74 449C184.58 449 216.83 423.92 256 423.92C295.51 423.92 327.85 449 376.26 449C421.19 449 448 428.15 448 393.25C448 315.76 335.41 193 256 193ZM108.72 180.39C98.32 145.74 66.28 123.3 37.16 130.26C8.04001 137.22 -7.12999 170.95 3.27001 205.6C13.67 240.25 45.71 262.69 74.83 255.73C103.95 248.77 119.12 215.04 108.72 180.39V180.39ZM193.44 159.61C224.38 151.47 239.86 109.67 228.02 66.25C216.18 22.83 181.5 -5.76 150.56 2.38C119.62 10.52 104.14 52.32 115.98 95.74C127.82 139.16 162.51 167.76 193.44 159.61ZM474.83 130.27C445.71 123.31 413.68 145.75 403.27 180.4C392.87 215.05 408.04 248.78 437.16 255.74C466.28 262.7 498.31 240.26 508.72 205.61C519.12 170.96 503.95 137.23 474.83 130.27V130.27ZM318.56 159.61C349.5 167.75 384.18 139.16 396.02 95.74C407.86 52.32 392.38 10.53 361.44 2.38C330.5 -5.77 295.82 22.83 283.98 66.25C272.14 109.67 287.62 151.47 318.56 159.61V159.61Z" fill="#7B2CBF"/>
</svg>
