<svg width="512" height="512" viewBox="0 0 512 512" fill="none" xmlns="http://www.w3.org/2000/svg">
<path d="M493.4 24.6L389.4 0.59995C378.1 -2.00005 366.5 3.89995 361.9 14.4999L313.9 126.5C309.7 136.3 312.5 147.8 320.8 154.5L381.4 204.1C345.4 280.8 282.5 344.6 204.2 381.3L154.6 320.7C147.8 312.4 136.4 309.6 126.6 313.8L14.5999 361.8C3.89992 366.5 -2.00008 378.1 0.599918 389.4L24.5999 493.4C27.0999 504.2 36.6999 512 47.9999 512C304.1 512 512 304.5 512 48C512 36.8 504.3 27.1 493.4 24.6Z" fill="white"/>
</svg>
